<?xml version="1.0" encoding="utf-8"?>
<!-- Generator: Adobe Illustrator 22.0.1, SVG Export Plug-In . SVG Version: 6.00 Build 0)  -->
<svg version="1.1" id="Layer_1" xmlns="http://www.w3.org/2000/svg" xmlns:xlink="http://www.w3.org/1999/xlink" x="0px" y="0px"
	 viewBox="0 0 344 397" style="enable-background:new 0 0 344 397;" xml:space="preserve">
<style type="text/css">
	.st0{clip-path:url(#SVGID_2_);fill:#990000;}
	.st1{clip-path:url(#SVGID_4_);fill:#990000;}
</style>
<g>
	<g>
		<defs>
			<rect id="SVGID_1_" width="344" height="397"/>
		</defs>
		<clipPath id="SVGID_2_">
			<use xlink:href="#SVGID_1_"  style="overflow:visible;"/>
		</clipPath>
		<path class="st0" d="M172.10001,0.7l171.5,99v66h-35.20001C293.5,104.3,238,58.5,172.10001,58.5c-77.2,0-140.2,63-140.2,140.2
			S94.9,339,172.10001,339C238,339,293.5,293.20001,308.40002,231.8h35.20001v65.99998l-171.5,99l-171.5-99v-198L172.10001,0.7"/>
	</g>
	<g>
		<defs>
			<rect id="SVGID_3_" width="344" height="397"/>
		</defs>
		<clipPath id="SVGID_4_">
			<use xlink:href="#SVGID_3_"  style="overflow:visible;"/>
		</clipPath>
		<path class="st1" d="M249.8,220.5c5.89999,0,11.8,0,17.8,0c4.70001,0,8.10001-1.39999,10.39999-4.3
			c2.20001-2.8,2.70001-6.60001,1.39999-11.39999c-0.20001-0.60001-0.29999-1.2-0.5-1.8C274.79999,188.2,271,174.39999,267.5,161.7
			c-3.29999-11.89999-6.29999-23-9.20001-33.40001l-0.10001-0.10001v-0.10001c0-0.1,0-0.1,0-0.1v-0.1c0-0.1,0-0.1-0.10001-0.1v-0.1
			c0-0.1,0-0.1-0.10001-0.1c0,0,0-0.1-0.10001-0.1c0-0.1,0-0.1,0-0.1c0-0.1,0-0.1-0.10001-0.1v-0.1c0,0,0-0.1-0.10001-0.1
			c0,0,0-0.1-0.10001-0.1c0,0,0-0.1-0.10001-0.1c0,0,0-0.1-0.10001-0.1c0,0,0-0.1-0.10001-0.1l-0.10001-0.1c0,0,0-0.1-0.10001-0.1
			c0,0,0-0.1-0.10001-0.1c0,0,0-0.1-0.10001-0.1l-0.10001-0.1l-0.10001-0.1c0,0,0-0.1-0.10001-0.1l-0.10001-0.1
			c0,0,0-0.1-0.10001-0.1l-0.10001-0.1l-0.10001-0.1l-0.10001-0.1c0-0.1-0.10001-0.1-0.10001-0.1l-0.10001-0.1l-0.10001-0.1
			c0,0,0-0.1-0.10001-0.1s-0.10001-0.1-0.10001-0.1l-0.10001-0.1l-0.10001-0.1l-0.10001-0.1l-0.10001-0.1l-0.10001-0.1l-0.10001-0.1
			l-0.10001-0.1l-0.10001-0.1l-0.10001-0.1l-0.10001-0.1l-0.10001-0.1l-0.10001-0.1l-0.10001-0.1l-0.10001-0.1l-0.10001-0.1
			l-0.10001-0.1l-0.10001-0.1c0,0-0.10001,0-0.10001-0.1l-0.10001-0.1l-0.10001-0.1l-0.10001-0.1l-0.10001-0.1
			c0,0-0.10001,0-0.10001-0.1l-0.10001-0.1l-0.10001-0.1l-0.10001-0.1l-0.10001-0.1l-0.10001-0.1l-0.10001-0.1
			c0,0-0.10001-0.1-0.2-0.1c0,0-0.10001,0-0.10001-0.1c-0.10001,0-0.10001-0.1-0.10001-0.1c-0.10001,0-0.10001-0.1-0.10001-0.1
			c-0.10001,0-0.10001,0-0.10001-0.1c-0.10001,0-0.10001-0.1-0.10001-0.1c-0.10001,0-0.10001-0.1-0.10001-0.1
			c-0.10001,0-0.10001,0-0.2-0.1l-0.10001-0.1c0,0-0.10001,0-0.10001-0.1c0,0-0.10001,0-0.10001-0.1l-0.10001-0.1l-0.10001-0.1
			c-0.10001,0-0.10001,0-0.10001-0.1c0,0-0.10001,0-0.10001-0.1l-0.10001-0.1c0,0-0.10001,0-0.10001-0.1
			c-0.10001,0-0.10001,0-0.2-0.1l-0.10001-0.1c0,0-0.10001,0-0.10001-0.1c-0.10001,0-0.10001,0-0.10001-0.1
			c0,0-0.10001,0-0.10001-0.1l0,0c-0.10001,0-0.10001,0-0.2-0.1c0,0-0.10001,0-0.10001-0.1c-0.10001,0-0.10001,0-0.10001,0
			s-0.10001,0-0.10001-0.1c-0.10001,0-0.10001,0-0.10001-0.1h-0.10001c-0.10001,0-0.10001,0-0.10001-0.1
			c-0.10001,0-0.10001,0-0.10001,0s-0.10001,0-0.10001-0.1c-0.10001,0-0.10001,0-0.10001,0c-0.10001,0-0.10001,0-0.10001-0.1
			h-0.10001c-0.10001,0-0.10001,0-0.10001,0c-0.10001,0-0.10001,0-0.10001,0c-0.10001,0-0.10001,0-0.10001,0h-0.10001h-0.10001
			h-0.10001c-0.10001,0-0.10001,0-0.10001,0c-0.10001,0-0.10001,0-0.10001,0c-0.10001,0-0.10001,0-0.10001,0
			c-0.10001,0-0.10001,0-0.10001,0c-0.10001,0-0.10001,0-0.10001,0c-0.10001,0-0.10001,0-0.10001,0c-0.10001,0-0.10001,0-0.10001,0
			c-0.10001,0-0.10001,0-0.10001,0c-0.10001,0-0.10001,0-0.2,0h-0.10001h-0.10001c-0.10001,0-0.10001,0-0.10001,0
			c-0.10001,0-0.10001,0-0.10001,0c-0.10001,0-0.10001,0-0.2,0c0,0-0.10001,0-0.2,0c-0.10001,0-0.10001,0-0.2,0h-0.10001
			c0,0-0.10001,0-0.2,0h-0.10001c-0.10001,0-0.10001,0-0.10001,0h-0.10001h-0.10001c-0.10001,0-0.10001,0-0.2,0h-0.10001
			c-0.10001,0-0.10001,0-0.2,0s-0.10001,0-0.2,0c-9.3,0-18.7,0-28,0s-18.7,0-28,0c-4.39999,0-8.8,0-13.2,0c-0.8,0-1.5,0-2.3,0
			s-1.5,0-2.2,0l0,0c-4.39999,0-8.8,0-13.3,0c-9.3,0-18.7,0-28,0s-18.7,0-28,0c-0.1,0-0.1,0-0.2,0s-0.1,0-0.2,0h-0.1
			c0,0-0.1,0-0.2,0h-0.1h-0.1c-0.1,0-0.1,0-0.2,0s-0.1,0-0.1,0c-0.1,0-0.1,0-0.2,0h-0.1c-0.1,0-0.1,0-0.1,0c-0.1,0-0.1,0-0.1,0
			c-0.1,0-0.1,0-0.2,0h-0.1c-0.1,0-0.1,0-0.1,0c-0.1,0-0.1,0-0.1,0c-0.1,0-0.1,0-0.1,0c-0.1,0-0.1,0-0.2,0h-0.1h-0.1h-0.1h-0.1h-0.1
			h-0.1h-0.1h-0.1h-0.1c-0.1,0-0.1,0-0.1,0c-0.1,0-0.1,0-0.1,0.1c-0.1,0-0.1,0-0.1,0c-0.1,0-0.1,0-0.1,0h-0.1h-0.1
			c-0.1,0-0.1,0-0.1,0c-0.1,0-0.1,0-0.1,0.1h-0.1c-0.1,0-0.1,0-0.1,0.1c-0.1,0-0.1,0-0.1,0s-0.1,0-0.1,0.1c-0.1,0-0.1,0-0.1,0.1
			c0,0-0.1,0-0.1,0.1c-0.1,0-0.1,0-0.1,0s-0.1,0-0.1,0.1c-0.1,0-0.1,0.1-0.2,0.1l0,0c0,0-0.1,0-0.1,0.1c-0.1,0-0.1,0-0.1,0l-0.1,0.1
			l-0.1,0.1c-0.1,0-0.1,0.1-0.2,0.1h-0.1l-0.1,0.1c-0.1,0-0.1,0.1-0.1,0.1c-0.1,0-0.1,0-0.1,0.1l-0.1,0.1l-0.1,0.1l-0.1,0.1
			c-0.1,0-0.1,0-0.1,0.1c-0.1,0-0.1,0.1-0.1,0.1c-0.1,0-0.1,0-0.2,0.1c0,0-0.1,0-0.1,0.1c0,0-0.1,0-0.1,0.1l-0.1,0.1l-0.1,0.1
			l-0.1,0.1l-0.1,0.1c-0.1,0-0.1,0.1-0.1,0.1l-0.1,0.1l-0.1,0.1c-0.1,0-0.1,0.1-0.1,0.1l-0.1,0.1c0,0-0.1,0-0.1,0.1
			c-0.1,0-0.1,0.1-0.1,0.1l-0.1,0.1l-0.1,0.1l-0.1,0.1c0,0-0.1,0-0.1,0.1l-0.1,0.1l-0.1,0.1l-0.1,0.1l-0.1,0.1l-0.1,0.1l-0.1,0.1
			l-0.1,0.1l-0.1,0.1l-0.1,0.1c0,0-0.1,0-0.1,0.1l-0.1,0.1l-0.1,0.1l-0.1,0.1l-0.1,0.1l-0.1,0.1l-0.1,0.1l-0.1,0.1l-0.1,0.1
			l-0.1,0.1l-0.1,0.1l-0.1,0.1l-0.1,0.1l-0.1,0.1l-0.1,0.1l-0.1,0.1l-0.1,0.1l-0.1,0.1c0,0,0,0.1-0.1,0.1l-0.1,0.1
			c0,0,0,0.1-0.1,0.1c0,0.1-0.1,0.1-0.1,0.1s0,0.1-0.1,0.1c0,0,0,0.1-0.1,0.1c0,0,0,0.1-0.1,0.1c0,0,0,0.1-0.1,0.1
			c0,0,0,0.1-0.1,0.1c0,0,0,0.1-0.1,0.1c0,0,0,0.1-0.1,0.1c0,0,0,0.1-0.1,0.1c0,0,0,0.1-0.1,0.1c0,0,0,0.1-0.1,0.1v0.1
			c0,0,0,0.1-0.1,0.1v0.1c0,0,0,0.1-0.1,0.1c0,0.1,0,0.1,0,0.1v0.1c0,0.1,0,0.1,0,0.1v0.1c0,0.1,0,0.1,0,0.1v0.1
			c0,0.10001,0,0.10001,0,0.10001c-2.9,10.39999-5.9,21.5-9.2,33.39999c-3.5,12.8-7.3,26.5-11.4,41.39999
			c-0.2,0.60001-0.3,1.2-0.5,1.8c-1.3,4.8-1,8.60001,1.3,11.39999c2.2,2.8,5.7,4.2,10.4,4.2c5.9,0,11.8,0,17.8,0
			c10.5,0,16.6-5.39999,18.1-15.7c0.4-2.3,0.7-4.7,1.1-6.89999c1.3-8.60001,0.9-8.10001,0.5-10.60001c-0.3-2.39999-2.3-5.3-5.9-8.7
			c-1.7-1.8-3.3-3.60001-5-5.39999c-3.2-3.7-4.4-8.7-4.6-10.60001c-0.1-1,0.1-2.8,0.4-5.2c0.6-2.8,1.2-5.60001,1.8-8.3
			c0.5-2.3,0.9-4.10001,1.2-5.39999c0.3-1.39999,0.5-2.39999,0.7-3.2c0.8-3.89999,1.9-6.3,3.1-7.10001c1.4-0.8,4.7-1.3,10.1-1.3
			c9.3,0,18.6,0,27.9,0c-0.5,5.39999-1,11-1.5,16.89999c-0.5,5.7-0.5,9.5,0,11.2s2.60001,3.89999,6.39999,6.5
			c1.8,1.39999,3.7,2.89999,5.5,4.3c3.8,3.10001,6,5.5,6.5,7.2c0.10001,0.2,0.10001,0.39999,0.2,0.60001
			c-0.3,11.2-0.89999,30.10001-1.60001,51c-0.7,23.3-1.5,49.40001-2.10001,67.59999
			c-0.10001,3.70001,7.3,11.89999,14.89999,11.89999c7.60001,0,15-8.20001,14.89999-12c-0.60001-18.20001-1.3-44.3-2.10001-67.5
			c-0.60001-20.89999-1.2-39.8-1.5-51c0.10001-0.3,0.10001-0.5,0.2-0.7c0.5-1.7,2.7-4.10001,6.5-7.2
			c1.89999-1.5,3.7-2.89999,5.60001-4.39999c3.8-2.60001,5.89999-4.8,6.39999-6.5s0.5-5.5,0-11.2c-0.5-5.8-1-11.39999-1.5-16.89999
			c9.3,0,18.60001,0,27.8,0c5.3,0,8.7,0.39999,10.10001,1.3c1.3,0.89999,2.3,3.2,3.10001,7.10001c0.2,0.8,0.39999,1.8,0.7,3.2
			s0.7,3.2,1.2,5.39999c0.60001,2.7,1.2,5.5,1.8,8.3c0.39999,2.39999,0.5,4.2,0.39999,5.2
			c-0.2,1.89999-1.39999,6.89999-4.60001,10.60001c-1.60001,1.8-3.3,3.60001-5,5.39999c-3.60001,3.39999-5.60001,6.3-6,8.7
			c-0.3,2.39999-0.8,1.89999,0.60001,10.5c0.39999,2.3,0.7,4.60001,1.10001,6.89999C233.3,215.10001,239.39999,220.5,249.8,220.5"/>
	</g>
</g>
</svg>
